<svg width="155" height="40" viewBox="0 0 155 40" fill="none" xmlns="http://www.w3.org/2000/svg">
<path fill-rule="evenodd" clip-rule="evenodd" d="M20.7491 2.8241C20.5271 2.68536 20.5271 2.68536 20.3127 2.57813C20.0457 2.50253 19.9061 2.47565 19.6462 2.57763L19.4479 2.70203L19.2197 2.84218C19.0522 2.94885 18.8838 3.05434 18.7149 3.1588C18.5786 3.24294 18.4424 3.32727 18.3066 3.41217C17.9062 3.66297 17.5031 3.90907 17.0991 4.1541C16.9645 4.23567 16.8298 4.3173 16.6953 4.39911C16.0559 4.78823 15.4142 5.17312 14.7702 5.55459C14.4561 5.74055 14.1422 5.92688 13.8284 6.11329L13.7764 6.14417C13.5317 6.28954 13.2871 6.43491 13.0421 6.57967C12.7777 6.73572 12.5136 6.89204 12.25 7.04941L11.9534 7.22657L11.6665 7.39518L11.4065 7.55127C11.2765 7.62849 11.2201 7.66195 11.1664 7.69918C11.1253 7.72766 11.0857 7.75835 11.0159 7.81251V8.04688L11.1411 8.15033L11.321 8.25684L11.5276 8.38084L11.7581 8.51563C12.0143 8.66848 12.2705 8.82119 12.5276 8.97259C12.7717 9.11633 13.0154 9.2607 13.2589 9.40534L13.361 9.46597C13.6402 9.63188 13.9195 9.79778 14.199 9.9633C14.8524 10.3501 15.504 10.7395 16.1524 11.1349C16.9125 11.5987 17.6738 12.0604 18.4398 12.5145L18.7454 12.6953C18.8889 12.7811 19.0324 12.8669 19.1765 12.9518L19.309 13.0298C19.4586 13.1184 19.6107 13.203 19.7659 13.2813C19.9854 13.3509 20.0964 13.3829 20.3118 13.2986L20.4656 13.197L20.6469 13.0807C20.7834 12.9901 20.9206 12.9007 21.0584 12.8123L21.2881 12.666C21.7512 12.3701 22.2215 12.0881 22.6947 11.8087C23.5971 11.2768 24.4966 10.7408 25.3909 10.1953C25.9243 9.86904 26.4587 9.54512 26.9989 9.23019C27.1168 9.16149 27.2347 9.09269 27.3525 9.02379C27.5254 8.92265 27.6983 8.82152 27.8713 8.72071L27.8894 8.71032C28.048 8.61911 28.2066 8.52792 28.3646 8.43561L28.5146 8.34778C28.6807 8.25373 28.8297 8.15969 28.9846 8.04688V7.81251L28.8544 7.70657L28.6685 7.59705L28.4571 7.47065C28.2973 7.37737 28.1378 7.28333 27.9787 7.18863L27.7233 7.03644C27.282 6.77535 26.8436 6.50996 26.406 6.24272C25.4728 5.67277 24.5345 5.11164 23.593 4.55559C23.0688 4.24606 22.5454 3.93561 22.0274 3.61585L21.7196 3.4259L21.6937 3.40992C21.5087 3.29601 21.3238 3.18211 21.1399 3.06666L21.0046 2.98173L20.7491 2.8241ZM35.8861 14.9911C36.2578 15.1995 36.4847 15.4587 36.6408 15.8594C36.6858 16.1646 36.6836 16.4663 36.6813 16.7743L36.6829 17.0494C36.6843 17.3489 36.6834 17.6482 36.6824 17.9477L36.6833 18.5744C36.6838 19.0123 36.6831 19.4501 36.6816 19.8879C36.6799 20.3919 36.6804 20.8959 36.6822 21.3999C36.6836 21.8344 36.6838 22.2688 36.683 22.7033C36.6825 22.962 36.6825 23.2207 36.6834 23.4794C36.6842 23.7686 36.683 24.0578 36.6813 24.347L36.6832 24.602C36.6745 25.3945 36.4787 26.1179 35.9963 26.7529L35.8968 26.8862C35.7815 27.0398 35.6643 27.1917 35.5471 27.3437L35.2566 27.7258C35.0976 27.9348 34.9385 28.1437 34.7789 28.3522C34.4309 28.8067 34.0884 29.2647 33.7502 29.7266C33.3654 30.252 32.9741 30.7719 32.5783 31.2891C32.1684 31.8256 31.7603 32.3632 31.3576 32.9053L31.2261 33.0807C30.1513 34.5348 30.0052 35.5878 29.9221 37.5H22.344L22.3293 34.1309L22.3229 33.0734L22.3218 32.5922L22.3216 32.4389C22.3212 32.2994 22.3204 32.1598 22.3192 32.0203C22.3063 30.4347 22.4871 29.0474 23.6348 27.8499C23.7492 27.7338 23.8648 27.619 23.9805 27.5041L23.9805 27.504L23.9806 27.504L23.9814 27.5032L23.9846 27.5C24.0711 27.4118 24.1574 27.3235 24.2437 27.2351C24.6405 26.8308 25.0413 26.4349 25.4729 26.0675C25.6535 25.9133 25.8298 25.7548 26.0061 25.5957L26.2051 25.4163L26.4065 25.2344C26.8137 24.8666 27.2214 24.4999 27.6372 24.1418C27.7766 24.0168 27.9108 23.8896 28.0443 23.7585C28.8732 22.9533 29.6578 22.4652 30.8443 22.4783C31.5095 22.5361 32.0938 22.8258 32.5783 23.2812C32.6603 23.4042 32.6993 23.4626 32.7182 23.527C32.7353 23.5853 32.736 23.6485 32.7372 23.7689V23.7689C32.6303 24.1575 32.4379 24.3408 32.1528 24.6123L32.1456 24.6192L31.9839 24.7787C31.8683 24.8926 31.7521 25.0059 31.6354 25.1188C31.4508 25.2974 31.2678 25.4774 31.0851 25.6578C30.6971 26.0405 30.3073 26.4212 29.9172 26.8018C29.4649 27.243 29.0134 27.685 28.5638 28.1289C28.3833 28.3064 28.2015 28.4824 28.0195 28.6584C27.9091 28.7671 27.7988 28.8758 27.6885 28.9847L27.5339 29.1319C27.3932 29.2724 27.3234 29.3422 27.2749 29.4245C27.2271 29.5058 27.2002 29.5993 27.1467 29.7851C27.1763 30.0158 27.1763 30.0158 27.344 30.2344C27.4427 30.2849 27.4947 30.3115 27.5497 30.3224C27.6108 30.3346 27.6757 30.3275 27.8127 30.3125C28.0255 30.1861 28.1949 30.0132 28.3666 29.838L28.3666 29.838L28.4113 29.7924L28.4377 29.7656L28.7163 29.4873C28.8681 29.3357 29.0195 29.184 29.1697 29.0309C29.4041 28.7931 29.6408 28.5636 29.8949 28.3468C30.2666 28.0233 30.6162 27.6793 30.9655 27.3318L31.1702 27.1285C31.312 26.9874 31.4538 26.8461 31.5954 26.7048C31.8114 26.4896 32.0282 26.2753 32.2449 26.0609L32.6598 25.6473L32.8549 25.4551C33.3847 24.9233 33.8373 24.4265 33.8386 23.6455L33.8396 23.4418L33.8394 23.2201L33.8403 22.9852C33.8408 22.8169 33.8412 22.6485 33.8415 22.4802C33.8421 22.2135 33.8433 21.9468 33.8448 21.6802C33.8489 20.9219 33.8526 20.1637 33.8538 19.4055C33.8546 18.9416 33.8569 18.4778 33.8602 18.0139C33.8611 17.8374 33.8615 17.6608 33.8614 17.4843C33.8612 17.2369 33.8629 16.9896 33.8651 16.7422L33.8635 16.5224C33.8711 15.9924 33.987 15.5605 34.356 15.166C34.8387 14.8657 35.3447 14.786 35.8861 14.9911ZM5.32738 15.0049C5.6765 15.2454 5.95861 15.5314 6.09398 15.9375C6.10128 16.0471 6.10439 16.1571 6.10476 16.267L6.10605 16.4704L6.1063 16.6929L6.1075 16.9278C6.10834 17.0963 6.10901 17.2649 6.10954 17.4334C6.11047 17.7004 6.11199 17.9674 6.11369 18.2344C6.11851 18.9936 6.12273 19.7529 6.12534 20.5121C6.12698 20.9764 6.12974 21.4407 6.13321 21.9049C6.13431 22.0817 6.135 22.2584 6.13524 22.4352C6.13563 22.683 6.13744 22.9307 6.13957 23.1785L6.13885 23.3985C6.14702 24.0416 6.28568 24.5319 6.74248 25.0082L6.85179 25.1232C6.9885 25.2658 7.12704 25.4064 7.26585 25.5469L7.44819 25.7323C7.92359 26.215 8.40231 26.6943 8.88193 27.1729C9.0369 27.3276 9.19159 27.4827 9.34628 27.6377L9.35197 27.6434C9.50471 27.7965 9.65765 27.9493 9.81064 28.1021C9.91736 28.2088 10.0239 28.3156 10.1305 28.4224C10.4768 28.7674 10.8273 29.1017 11.1995 29.4188C11.4072 29.6001 11.5936 29.802 11.7803 30.0043L11.7803 30.0043L11.8615 30.0922C12.0541 30.2533 12.1743 30.2905 12.4221 30.3125L12.4221 30.3125C12.5133 30.2995 12.5588 30.293 12.5979 30.2734C12.6369 30.2539 12.6695 30.2214 12.7346 30.1563L12.7346 30.1562C12.7884 30.0381 12.8165 29.9762 12.8275 29.9115C12.8395 29.8404 12.8309 29.7658 12.8127 29.6094C12.5294 29.1676 12.1091 28.7793 11.7055 28.4066L11.7055 28.4065L11.7055 28.4065L11.7055 28.4065C11.5658 28.2775 11.4282 28.1504 11.2989 28.0235C11.0673 27.7959 10.8365 27.5674 10.6057 27.3389L10.472 27.2066C10.1229 26.8612 9.77337 26.5161 9.42269 26.1723C9.13787 25.893 8.85422 25.6125 8.57131 25.3313C8.46364 25.2246 8.35555 25.1185 8.24704 25.0127C8.09558 24.865 7.94565 24.716 7.79598 24.5665L7.65997 24.4359C7.37464 24.1469 7.27008 23.938 7.26585 23.5156C7.56441 22.9738 8.17922 22.7121 8.75176 22.5272C9.64725 22.37 10.4086 22.5648 11.1463 23.0683C11.435 23.2821 11.6911 23.5244 11.9485 23.7744L12.2765 24.0872L12.4341 24.238C12.6662 24.4585 12.9048 24.6714 13.1436 24.8845L13.1436 24.8845L13.1437 24.8846L13.1437 24.8846L13.1704 24.9084C13.3913 25.1065 13.6099 25.307 13.8284 25.5078C14.1117 25.7682 14.3962 26.0273 14.6828 26.2842C14.994 26.5637 15.3029 26.8455 15.6106 27.1289L15.7383 27.2462C15.9931 27.4814 16.2412 27.7217 16.4846 27.9687L16.6088 28.0936C17.6435 29.2182 17.6913 30.5978 17.6794 32.0374C17.679 32.1776 17.6788 32.3178 17.6787 32.458C17.6776 32.9193 17.6748 33.3805 17.6721 33.8418L17.6711 34.0039L17.6565 37.5H10.0784L10.0002 35.7812C9.74667 34.4759 9.22945 33.6601 8.42003 32.6407C8.13395 32.2794 7.85977 31.9103 7.58812 31.5381C7.20024 31.0076 6.80595 30.4827 6.40648 29.9609C5.95811 29.375 5.51523 28.7856 5.08051 28.1895C4.86644 27.8964 4.65009 27.6062 4.42497 27.3215L4.29733 27.158C4.21998 27.0593 4.14171 26.9613 4.0622 26.8644C3.281 25.8609 3.29359 24.7605 3.30724 23.5673C3.30853 23.4543 3.30983 23.3404 3.31047 23.2257C3.31058 23.0359 3.31029 22.8461 3.31 22.6563L3.3099 22.5929C3.30955 22.1525 3.31078 21.7122 3.31297 21.2719C3.31548 20.7639 3.31547 20.256 3.31413 19.7481C3.31288 19.2572 3.31341 18.7663 3.31475 18.2753C3.31528 18.0673 3.31511 17.8593 3.31462 17.6513C3.3142 17.3609 3.31579 17.0706 3.31793 16.7803L3.31638 16.521C3.32261 16.0235 3.37317 15.7158 3.67211 15.3125C4.18894 14.9117 4.70262 14.7966 5.32738 15.0049ZM29.6878 8.98438C29.7465 10.2828 29.7904 11.5807 29.8173 12.8801C29.8301 13.4837 29.8476 14.0864 29.8764 14.6894V14.6894C30.0224 17.8175 30.0548 18.5113 29.7735 19.0373C29.6933 19.1872 29.5877 19.3235 29.4519 19.4986C28.9175 20.0479 28.2271 20.3007 27.5078 20.5156C27.0433 20.6615 26.6456 20.9245 26.2434 21.1905C26.1938 21.2234 26.144 21.2563 26.094 21.2891C25.9166 21.399 25.738 21.5068 25.5593 21.6148L25.5584 21.6153L25.4061 21.7079C24.8456 22.0476 24.2814 22.3813 23.7172 22.7151L23.717 22.7152L23.5669 22.804C22.7813 23.2689 21.9993 23.7391 21.2219 24.2179L21.0162 24.3442L20.8375 24.4544C20.7497 24.5047 20.7194 24.5221 20.6869 24.5281C20.6699 24.5312 20.6522 24.5312 20.6253 24.5312C20.6088 23.2152 20.5964 21.8991 20.5888 20.5829C20.5852 19.9718 20.5803 19.3607 20.5722 18.7496C20.5652 18.2169 20.5607 17.6842 20.5591 17.1515C20.5582 16.8694 20.556 16.5875 20.5509 16.3055C20.5452 15.9904 20.5451 15.6756 20.5454 15.3605L20.5378 15.0779C20.5422 14.6872 20.5438 14.5432 20.6029 14.4289C20.6375 14.3622 20.6917 14.3057 20.7775 14.2161C20.9566 14.095 21.1333 13.9988 21.3284 13.9062C21.4205 13.8511 21.5121 13.795 21.603 13.7379L21.867 13.5825L22.014 13.4956L22.3246 13.3126C22.6037 13.1483 22.8823 12.9833 23.161 12.8183L23.3322 12.7169C23.8647 12.4012 24.3937 12.0801 24.9221 11.7578C25.8269 11.2062 26.7367 10.6635 27.649 10.1245L27.9467 9.94843L28.0911 9.86315C28.3322 9.72024 28.5718 9.57536 28.8095 9.42692L28.9513 9.33847C29.0796 9.25817 29.2075 9.17737 29.3355 9.09655C29.4503 9.03086 29.4978 9.00364 29.5489 8.99236C29.5851 8.98438 29.623 8.98438 29.6878 8.98438ZM11.1602 9.39972C10.8822 9.23644 10.6129 9.10116 10.3128 8.98438C10.2901 10.2374 10.2723 11.4904 10.2617 12.7437C10.2566 13.3532 10.251 13.9627 10.2396 14.5722C10.2294 15.1073 10.2211 15.6423 10.2179 16.1775C10.2178 16.2052 10.2177 16.2329 10.2176 16.2606C10.2166 16.5159 10.2155 16.7712 10.2098 17.0264C10.2071 17.1304 10.2033 17.2352 10.1996 17.3406C10.1783 17.9428 10.1563 18.5627 10.3128 19.1406C10.5054 19.4467 10.74 19.5542 11.0703 19.6856C11.2082 19.7231 11.27 19.7399 11.328 19.7654C11.3752 19.7862 11.4199 19.8128 11.5008 19.8611L11.6385 19.9518L12.0432 20.1908L12.1952 20.2808C13.0187 20.7672 13.8409 21.2554 14.6577 21.7529C15.4418 22.2309 16.2273 22.7064 17.0164 23.1763L17.3489 23.374C17.5044 23.4667 17.66 23.5594 17.8157 23.6519L17.962 23.7387C18.217 23.8902 18.4725 24.0386 18.7324 24.1815L18.9639 24.3074L19.3753 24.5312C19.377 23.269 19.3784 22.0067 19.3792 20.7444C19.3796 20.131 19.38 19.5175 19.3809 18.904C19.3817 18.3651 19.3823 17.8261 19.3826 17.2871L19.3826 17.2065C19.3827 16.9489 19.3828 16.6913 19.3832 16.4338C19.3837 16.1613 19.3842 15.8889 19.3842 15.6164L19.3841 15.3162L19.385 15.0292L19.3847 14.77C19.3848 14.6383 19.3828 14.5065 19.3753 14.375C19.3581 14.3578 19.3442 14.3439 19.3297 14.3307C19.2694 14.2756 19.1989 14.2316 18.8342 14.0044L18.6282 13.877C17.9042 13.4287 17.1736 12.9922 16.4407 12.5586C15.7303 12.1384 15.0212 11.7166 14.3166 11.2869C13.5571 10.8234 12.7959 10.363 12.0294 9.91123L11.7239 9.73145C11.5803 9.64658 11.4367 9.56176 11.2928 9.47735L11.1602 9.39972Z" fill="#51A0EF"/>
<path d="M45.5469 28V10.9375H49.8242V17.3125L55.168 10.9375H59.6562L49.8242 22.293V28H45.5469ZM55.4727 28L50.0117 20.0078L52.707 16.8906L60.5586 28H55.4727ZM59.6797 28L65.9141 10.8789H70.5547L76.8711 28H72.3594L68.375 16.5039C68.2891 16.2227 68.2188 15.9648 68.1641 15.7305C68.1094 15.4883 68.0625 15.2578 68.0234 15.0391H67.9414C67.9023 15.2578 67.8555 15.4883 67.8008 15.7305C67.7461 15.9727 67.6719 16.2305 67.5781 16.5039L63.6641 28H59.6797ZM63.5234 24.6133L64.3438 21.6016H71.8672L72.7109 24.6133H63.5234ZM78.0547 28V10.9375H84.8047C86.7656 10.9375 88.3047 11.4219 89.4219 12.3906C90.5469 13.3594 91.1094 14.7148 91.1094 16.457C91.1094 18.2227 90.5352 19.6094 89.3867 20.6172C88.2461 21.6172 86.7109 22.1172 84.7812 22.1172H82.332V28H78.0547ZM82.332 19.1289H84.3828C85.2656 19.1289 85.8906 18.9023 86.2578 18.4492C86.6328 17.9961 86.8203 17.3672 86.8203 16.5625C86.8203 15.7656 86.6328 15.1445 86.2578 14.6992C85.8906 14.2539 85.2656 14.0312 84.3828 14.0312H82.332V19.1289ZM87.125 28L83.4219 20.2773L87.7578 19.8672L91.8711 28H87.125ZM96.8281 28V21.9297L91.0273 10.9375H95.7383L98.6797 16.7148C98.7812 16.918 98.8672 17.1172 98.9375 17.3125C99.0156 17.5078 99.0898 17.707 99.1602 17.9102H99.2305C99.3008 17.707 99.3711 17.5117 99.4414 17.3242C99.5195 17.1289 99.6133 16.9258 99.7227 16.7148L102.699 10.9375H106.789L101.129 21.7305V28H96.8281ZM106.965 19.9844V18.9531C106.965 16.1953 107.672 14.1172 109.086 12.7188C110.5 11.3203 112.387 10.6211 114.746 10.6211C116.887 10.6211 118.566 11.1328 119.785 12.1562C121.012 13.1797 121.613 14.4922 121.59 16.0938V16.375H117.371V16.1992C117.371 15.4805 117.141 14.8984 116.68 14.4531C116.219 14.0078 115.516 13.7852 114.57 13.7852C113.602 13.7852 112.828 14.1445 112.25 14.8633C111.672 15.5742 111.383 16.7031 111.383 18.25V20.7109C111.383 22.2812 111.703 23.4219 112.344 24.1328C112.984 24.8438 113.852 25.1992 114.945 25.1992C115.484 25.1992 115.945 25.1406 116.328 25.0234C116.711 24.9062 117.086 24.7148 117.453 24.4492V21.8242H114.723V18.8008H121.613V25.8438C121.043 26.4375 120.203 27 119.094 27.5312C117.984 28.0547 116.598 28.3164 114.934 28.3164C112.457 28.3164 110.508 27.6172 109.086 26.2188C107.672 24.8203 106.965 22.7422 106.965 19.9844ZM122.094 28L128.328 10.8789H132.969L139.285 28H134.773L130.789 16.5039C130.703 16.2227 130.633 15.9648 130.578 15.7305C130.523 15.4883 130.477 15.2578 130.438 15.0391H130.355C130.316 15.2578 130.27 15.4883 130.215 15.7305C130.16 15.9727 130.086 16.2305 129.992 16.5039L126.078 28H122.094ZM125.938 24.6133L126.758 21.6016H134.281L135.125 24.6133H125.938ZM140.469 28V10.9375H147.219C149.18 10.9375 150.719 11.4219 151.836 12.3906C152.961 13.3594 153.523 14.7148 153.523 16.457C153.523 18.2227 152.949 19.6094 151.801 20.6172C150.66 21.6172 149.125 22.1172 147.195 22.1172H144.746V28H140.469ZM144.746 19.1289H146.797C147.68 19.1289 148.305 18.9023 148.672 18.4492C149.047 17.9961 149.234 17.3672 149.234 16.5625C149.234 15.7656 149.047 15.1445 148.672 14.6992C148.305 14.2539 147.68 14.0312 146.797 14.0312H144.746V19.1289ZM149.539 28L145.836 20.2773L150.172 19.8672L154.285 28H149.539Z" fill="#51A0EF"/>
</svg>
