<?xml version="1.0" encoding="utf-8"?>
<svg xmlns="http://www.w3.org/2000/svg" xmlns:xlink="http://www.w3.org/1999/xlink" style="margin: auto; background: none; display: block; shape-rendering: auto;" width="200px" height="200px" viewBox="0 0 100 100" preserveAspectRatio="xMidYMid">
<g transform="rotate(0 50 50)">
  <rect x="48" y="24.5" rx="2" ry="2.97" width="4" height="11" fill="#51a0ef">
    <animate attributeName="opacity" values="1;0" keyTimes="0;1" dur="1.408450704225352s" begin="-1.2910798122065725s" repeatCount="indefinite"></animate>
  </rect>
</g><g transform="rotate(30 50 50)">
  <rect x="48" y="24.5" rx="2" ry="2.97" width="4" height="11" fill="#51a0ef">
    <animate attributeName="opacity" values="1;0" keyTimes="0;1" dur="1.408450704225352s" begin="-1.1737089201877933s" repeatCount="indefinite"></animate>
  </rect>
</g><g transform="rotate(60 50 50)">
  <rect x="48" y="24.5" rx="2" ry="2.97" width="4" height="11" fill="#51a0ef">
    <animate attributeName="opacity" values="1;0" keyTimes="0;1" dur="1.408450704225352s" begin="-1.056338028169014s" repeatCount="indefinite"></animate>
  </rect>
</g><g transform="rotate(90 50 50)">
  <rect x="48" y="24.5" rx="2" ry="2.97" width="4" height="11" fill="#51a0ef">
    <animate attributeName="opacity" values="1;0" keyTimes="0;1" dur="1.408450704225352s" begin="-0.9389671361502346s" repeatCount="indefinite"></animate>
  </rect>
</g><g transform="rotate(120 50 50)">
  <rect x="48" y="24.5" rx="2" ry="2.97" width="4" height="11" fill="#51a0ef">
    <animate attributeName="opacity" values="1;0" keyTimes="0;1" dur="1.408450704225352s" begin="-0.8215962441314553s" repeatCount="indefinite"></animate>
  </rect>
</g><g transform="rotate(150 50 50)">
  <rect x="48" y="24.5" rx="2" ry="2.97" width="4" height="11" fill="#51a0ef">
    <animate attributeName="opacity" values="1;0" keyTimes="0;1" dur="1.408450704225352s" begin="-0.7042253521126759s" repeatCount="indefinite"></animate>
  </rect>
</g><g transform="rotate(180 50 50)">
  <rect x="48" y="24.5" rx="2" ry="2.97" width="4" height="11" fill="#51a0ef">
    <animate attributeName="opacity" values="1;0" keyTimes="0;1" dur="1.408450704225352s" begin="-0.5868544600938966s" repeatCount="indefinite"></animate>
  </rect>
</g><g transform="rotate(210 50 50)">
  <rect x="48" y="24.5" rx="2" ry="2.97" width="4" height="11" fill="#51a0ef">
    <animate attributeName="opacity" values="1;0" keyTimes="0;1" dur="1.408450704225352s" begin="-0.4694835680751173s" repeatCount="indefinite"></animate>
  </rect>
</g><g transform="rotate(240 50 50)">
  <rect x="48" y="24.5" rx="2" ry="2.97" width="4" height="11" fill="#51a0ef">
    <animate attributeName="opacity" values="1;0" keyTimes="0;1" dur="1.408450704225352s" begin="-0.35211267605633795s" repeatCount="indefinite"></animate>
  </rect>
</g><g transform="rotate(270 50 50)">
  <rect x="48" y="24.5" rx="2" ry="2.97" width="4" height="11" fill="#51a0ef">
    <animate attributeName="opacity" values="1;0" keyTimes="0;1" dur="1.408450704225352s" begin="-0.23474178403755866s" repeatCount="indefinite"></animate>
  </rect>
</g><g transform="rotate(300 50 50)">
  <rect x="48" y="24.5" rx="2" ry="2.97" width="4" height="11" fill="#51a0ef">
    <animate attributeName="opacity" values="1;0" keyTimes="0;1" dur="1.408450704225352s" begin="-0.11737089201877933s" repeatCount="indefinite"></animate>
  </rect>
</g><g transform="rotate(330 50 50)">
  <rect x="48" y="24.5" rx="2" ry="2.97" width="4" height="11" fill="#51a0ef">
    <animate attributeName="opacity" values="1;0" keyTimes="0;1" dur="1.408450704225352s" begin="0s" repeatCount="indefinite"></animate>
  </rect>
</g>
<!-- [ldio] generated by https://loading.io/ --></svg>